<?xml version="1.0" encoding="UTF-8"?>
<svg id="Capa_2" data-name="Capa 2" xmlns="http://www.w3.org/2000/svg" viewBox="0 0 30 29.49">
  <defs>
    <style>
      .cls-1 {
        fill: #b3e028;
      }

      .cls-2 {
        fill: #1e2838;
      }
    </style>
  </defs>
  <g id="Capa_1-2" data-name="Capa 1">
    <g>
      <path class="cls-2" d="m9.35,26.27h0c-.85-1.7-2.48-2.88-4.37-3.16h0C.22,22.43-1.69,16.61,1.76,13.27h0c1.37-1.33,1.99-3.24,1.67-5.11h0C2.62,3.45,7.59-.14,11.85,2.08h0c1.69.88,3.71.88,5.4,0h0c4.26-2.23,9.23,1.37,8.42,6.08h0c-.32,1.87.3,3.78,1.67,5.11h0c3.44,3.34,1.54,9.16-3.22,9.84h0c-1.89.27-3.52,1.45-4.37,3.16h0c-2.13,4.29-8.28,4.29-10.41,0Z"/>
      <path class="cls-1" d="m3.22,19.42h0c.61-1.8.29-3.79-.86-5.32h0c-2.88-3.85-.11-9.31,4.69-9.23h0c1.9.03,3.7-.88,4.79-2.43h0c2.76-3.91,8.82-2.93,10.26,1.65h0c.57,1.82,2,3.25,3.82,3.82h0c4.58,1.44,5.56,7.5,1.65,10.26h0c-1.55,1.1-2.46,2.89-2.43,4.79h0c.08,4.8-5.38,7.57-9.23,4.69h0c-1.53-1.14-3.52-1.46-5.32-.86h0c-4.54,1.53-8.89-2.82-7.36-7.36Z"/>
      <path class="cls-2" d="m11.78,21.22h0c-.45-.91-1.32-1.54-2.33-1.68h0c-2.54-.37-3.55-3.47-1.72-5.25h0c.73-.71,1.06-1.73.89-2.72h0c-.43-2.51,2.22-4.43,4.49-3.24h0c.9.47,1.98.47,2.88,0h0c2.27-1.19,4.92.73,4.49,3.24h0c-.17,1,.16,2.02.89,2.72h0c1.84,1.78.82,4.88-1.72,5.25h0c-1.01.15-1.88.78-2.33,1.68h0c-1.14,2.29-4.42,2.29-5.55,0Z"/>
    </g>
  </g>
</svg>